<?xml version="1.0" encoding="UTF-8" standalone="no"?><!DOCTYPE svg PUBLIC "-//W3C//DTD SVG 1.1//EN" "http://www.w3.org/Graphics/SVG/1.1/DTD/svg11.dtd"><svg width="100%" height="100%" viewBox="0 0 8000 4500" version="1.1" xmlns="http://www.w3.org/2000/svg" xmlns:xlink="http://www.w3.org/1999/xlink" xml:space="preserve" xmlns:serif="http://www.serif.com/" style="fill-rule:evenodd;clip-rule:evenodd;stroke-linejoin:round;stroke-miterlimit:2;"><g transform="matrix(4.16667,0,0,4.16667,0,0)"><text x="0px" y="39.75px" style="font-family:'Roboto-Bold', 'Roboto';font-weight:700;font-size:53px;fill-opacity:0.25;">Aa <tspan x="77.651px " y="39.75px ">B</tspan>b <tspan x="154.888px " y="39.75px ">C</tspan>c <tspan x="230.779px " y="39.75px ">D</tspan>d <tspan x="308.663px " y="39.75px ">E</tspan>e <tspan x="380.698px " y="39.75px ">F</tspan>f <tspan x="442.304px " y="39.75px ">G</tspan>g <tspan x="522.232px " y="39.75px ">H</tspan>h <tspan x="602.911px " y="39.75px ">I</tspan>i <tspan x="645.987px " y="39.75px ">J</tspan>j <tspan x="702.935px " y="39.75px ">K</tspan>k <tspan x="778.464px " y="39.75px ">L</tspan>l <tspan x="834.791px " y="39.75px ">M</tspan>m <tspan x="940.676px " y="39.75px ">N</tspan>n <tspan x="1021.35px " y="39.75px ">O</tspan>o <tspan x="1101.49px " y="39.75px ">P</tspan>p <tspan x="1179.09px " y="39.75px ">Q</tspan>q <tspan x="1259.2px " y="39.75px ">R</tspan>r <tspan x="1325.93px " y="39.75px ">S</tspan>s <tspan x="1397.78px " y="39.75px ">T</tspan>t <tspan x="1462.05px " y="39.75px ">U</tspan>u <tspan x="1540.17px 1574.54px 1601.32px 1614.9px " y="39.75px 39.75px 39.75px 39.75px ">Vv W</tspan>w <tspan x="1713.77px " y="39.75px ">X</tspan>x <tspan x="1787.98px " y="39.75px ">Y</tspan>y <tspan x="1860.92px " y="39.75px ">Z</tspan>z</text><text x="0px" y="92.75px" style="font-family:'Roboto-Bold', 'Roboto';font-weight:700;font-size:53px;fill-opacity:0.25;">Aa <tspan x="77.651px " y="92.75px ">B</tspan>b <tspan x="154.888px " y="92.75px ">C</tspan>c <tspan x="230.779px " y="92.75px ">D</tspan>d <tspan x="308.663px " y="92.75px ">E</tspan>e <tspan x="380.698px " y="92.75px ">F</tspan>f <tspan x="442.304px " y="92.75px ">G</tspan>g <tspan x="522.232px " y="92.75px ">H</tspan>h <tspan x="602.911px " y="92.75px ">I</tspan>i <tspan x="645.987px " y="92.75px ">J</tspan>j <tspan x="702.935px " y="92.75px ">K</tspan>k <tspan x="778.464px " y="92.75px ">L</tspan>l <tspan x="834.791px " y="92.75px ">M</tspan>m <tspan x="940.676px " y="92.75px ">N</tspan>n <tspan x="1021.35px " y="92.75px ">O</tspan>o <tspan x="1101.49px " y="92.75px ">P</tspan>p <tspan x="1179.09px " y="92.75px ">Q</tspan>q <tspan x="1259.2px " y="92.75px ">R</tspan>r <tspan x="1325.93px " y="92.75px ">S</tspan>s <tspan x="1397.78px " y="92.75px ">T</tspan>t <tspan x="1462.05px " y="92.75px ">U</tspan>u <tspan x="1540.17px 1574.54px 1601.32px 1614.9px " y="92.75px 92.75px 92.75px 92.75px ">Vv W</tspan>w <tspan x="1713.77px " y="92.75px ">X</tspan>x <tspan x="1787.98px " y="92.75px ">Y</tspan>y <tspan x="1860.92px " y="92.75px ">Z</tspan>z</text><text x="0px" y="145.75px" style="font-family:'Roboto-Bold', 'Roboto';font-weight:700;font-size:53px;fill-opacity:0.25;">Aa <tspan x="77.651px " y="145.75px ">B</tspan>b <tspan x="154.888px " y="145.75px ">C</tspan>c <tspan x="230.779px " y="145.75px ">D</tspan>d <tspan x="308.663px " y="145.75px ">E</tspan>e <tspan x="380.698px " y="145.75px ">F</tspan>f <tspan x="442.304px " y="145.75px ">G</tspan>g <tspan x="522.232px " y="145.75px ">H</tspan>h <tspan x="602.911px " y="145.75px ">I</tspan>i <tspan x="645.987px " y="145.75px ">J</tspan>j <tspan x="702.935px " y="145.75px ">K</tspan>k <tspan x="778.464px " y="145.75px ">L</tspan>l <tspan x="834.791px " y="145.75px ">M</tspan>m <tspan x="940.676px " y="145.75px ">N</tspan>n <tspan x="1021.35px " y="145.75px ">O</tspan>o <tspan x="1101.49px " y="145.75px ">P</tspan>p <tspan x="1179.09px " y="145.75px ">Q</tspan>q <tspan x="1259.2px " y="145.75px ">R</tspan>r <tspan x="1325.93px " y="145.75px ">S</tspan>s <tspan x="1397.78px " y="145.75px ">T</tspan>t <tspan x="1462.05px " y="145.75px ">U</tspan>u <tspan x="1540.17px 1574.54px 1601.32px 1614.9px " y="145.75px 145.75px 145.75px 145.75px ">Vv W</tspan>w <tspan x="1713.77px " y="145.75px ">X</tspan>x <tspan x="1787.98px " y="145.75px ">Y</tspan>y <tspan x="1860.92px " y="145.75px ">Z</tspan>z</text><text x="0px" y="198.75px" style="font-family:'Roboto-Bold', 'Roboto';font-weight:700;font-size:53px;fill-opacity:0.25;">Aa <tspan x="77.651px " y="198.75px ">B</tspan>b <tspan x="154.888px " y="198.75px ">C</tspan>c <tspan x="230.779px " y="198.75px ">D</tspan>d <tspan x="308.663px " y="198.75px ">E</tspan>e <tspan x="380.698px " y="198.75px ">F</tspan>f <tspan x="442.304px " y="198.75px ">G</tspan>g <tspan x="522.232px " y="198.75px ">H</tspan>h <tspan x="602.911px " y="198.75px ">I</tspan>i <tspan x="645.987px " y="198.75px ">J</tspan>j <tspan x="702.935px " y="198.75px ">K</tspan>k <tspan x="778.464px " y="198.75px ">L</tspan>l <tspan x="834.791px " y="198.75px ">M</tspan>m <tspan x="940.676px " y="198.75px ">N</tspan>n <tspan x="1021.35px " y="198.75px ">O</tspan>o <tspan x="1101.49px " y="198.75px ">P</tspan>p <tspan x="1179.09px " y="198.75px ">Q</tspan>q <tspan x="1259.2px " y="198.75px ">R</tspan>r <tspan x="1325.93px " y="198.75px ">S</tspan>s <tspan x="1397.78px " y="198.75px ">T</tspan>t <tspan x="1462.05px " y="198.75px ">U</tspan>u <tspan x="1540.17px 1574.54px 1601.32px 1614.9px " y="198.75px 198.75px 198.75px 198.75px ">Vv W</tspan>w <tspan x="1713.77px " y="198.75px ">X</tspan>x <tspan x="1787.98px " y="198.75px ">Y</tspan>y <tspan x="1860.92px " y="198.75px ">Z</tspan>z</text><text x="0px" y="251.75px" style="font-family:'Roboto-Bold', 'Roboto';font-weight:700;font-size:53px;fill-opacity:0.25;">Aa <tspan x="77.651px " y="251.75px ">B</tspan>b <tspan x="154.888px " y="251.75px ">C</tspan>c <tspan x="230.779px " y="251.75px ">D</tspan>d <tspan x="308.663px " y="251.75px ">E</tspan>e <tspan x="380.698px " y="251.75px ">F</tspan>f <tspan x="442.304px " y="251.75px ">G</tspan>g <tspan x="522.232px " y="251.75px ">H</tspan>h <tspan x="602.911px " y="251.75px ">I</tspan>i <tspan x="645.987px " y="251.75px ">J</tspan>j <tspan x="702.935px " y="251.75px ">K</tspan>k <tspan x="778.464px " y="251.75px ">L</tspan>l <tspan x="834.791px " y="251.75px ">M</tspan>m <tspan x="940.676px " y="251.75px ">N</tspan>n <tspan x="1021.35px " y="251.75px ">O</tspan>o <tspan x="1101.49px " y="251.75px ">P</tspan>p <tspan x="1179.09px " y="251.75px ">Q</tspan>q <tspan x="1259.2px " y="251.75px ">R</tspan>r <tspan x="1325.93px " y="251.75px ">S</tspan>s <tspan x="1397.78px " y="251.75px ">T</tspan>t <tspan x="1462.05px " y="251.75px ">U</tspan>u <tspan x="1540.17px 1574.54px 1601.32px 1614.9px " y="251.75px 251.75px 251.75px 251.75px ">Vv W</tspan>w <tspan x="1713.77px " y="251.75px ">X</tspan>x <tspan x="1787.98px " y="251.75px ">Y</tspan>y <tspan x="1860.92px " y="251.75px ">Z</tspan>z</text><text x="0px" y="304.75px" style="font-family:'Roboto-Bold', 'Roboto';font-weight:700;font-size:53px;fill-opacity:0.25;">Aa <tspan x="77.651px " y="304.75px ">B</tspan>b <tspan x="154.888px " y="304.75px ">C</tspan>c <tspan x="230.779px " y="304.75px ">D</tspan>d <tspan x="308.663px " y="304.75px ">E</tspan>e <tspan x="380.698px " y="304.75px ">F</tspan>f <tspan x="442.304px " y="304.75px ">G</tspan>g <tspan x="522.232px " y="304.75px ">H</tspan>h <tspan x="602.911px " y="304.75px ">I</tspan>i <tspan x="645.987px " y="304.75px ">J</tspan>j <tspan x="702.935px " y="304.75px ">K</tspan>k <tspan x="778.464px " y="304.75px ">L</tspan>l <tspan x="834.791px " y="304.75px ">M</tspan>m <tspan x="940.676px " y="304.75px ">N</tspan>n <tspan x="1021.35px " y="304.75px ">O</tspan>o <tspan x="1101.49px " y="304.75px ">P</tspan>p <tspan x="1179.09px " y="304.75px ">Q</tspan>q <tspan x="1259.2px " y="304.75px ">R</tspan>r <tspan x="1325.93px " y="304.75px ">S</tspan>s <tspan x="1397.78px " y="304.75px ">T</tspan>t <tspan x="1462.05px " y="304.75px ">U</tspan>u <tspan x="1540.17px 1574.54px 1601.32px 1614.9px " y="304.75px 304.75px 304.75px 304.75px ">Vv W</tspan>w <tspan x="1713.77px " y="304.75px ">X</tspan>x <tspan x="1787.98px " y="304.75px ">Y</tspan>y <tspan x="1860.92px " y="304.75px ">Z</tspan>z</text><text x="0px" y="357.75px" style="font-family:'Roboto-Bold', 'Roboto';font-weight:700;font-size:53px;fill-opacity:0.25;">Aa <tspan x="77.651px " y="357.75px ">B</tspan>b <tspan x="154.888px " y="357.75px ">C</tspan>c <tspan x="230.779px " y="357.75px ">D</tspan>d <tspan x="308.663px " y="357.75px ">E</tspan>e <tspan x="380.698px " y="357.75px ">F</tspan>f <tspan x="442.304px " y="357.75px ">G</tspan>g <tspan x="522.232px " y="357.75px ">H</tspan>h <tspan x="602.911px " y="357.75px ">I</tspan>i <tspan x="645.987px " y="357.75px ">J</tspan>j <tspan x="702.935px " y="357.75px ">K</tspan>k <tspan x="778.464px " y="357.75px ">L</tspan>l <tspan x="834.791px " y="357.75px ">M</tspan>m <tspan x="940.676px " y="357.75px ">N</tspan>n <tspan x="1021.35px " y="357.75px ">O</tspan>o <tspan x="1101.49px " y="357.75px ">P</tspan>p <tspan x="1179.09px " y="357.75px ">Q</tspan>q <tspan x="1259.2px " y="357.75px ">R</tspan>r <tspan x="1325.93px " y="357.75px ">S</tspan>s <tspan x="1397.78px " y="357.75px ">T</tspan>t <tspan x="1462.05px " y="357.75px ">U</tspan>u <tspan x="1540.17px 1574.54px 1601.32px 1614.9px " y="357.75px 357.75px 357.75px 357.75px ">Vv W</tspan>w <tspan x="1713.77px " y="357.75px ">X</tspan>x <tspan x="1787.98px " y="357.75px ">Y</tspan>y <tspan x="1860.92px " y="357.75px ">Z</tspan>z</text><text x="0px" y="410.75px" style="font-family:'Roboto-Bold', 'Roboto';font-weight:700;font-size:53px;fill-opacity:0.25;">Aa <tspan x="77.651px " y="410.75px ">B</tspan>b <tspan x="154.888px " y="410.75px ">C</tspan>c <tspan x="230.779px " y="410.75px ">D</tspan>d <tspan x="308.663px " y="410.75px ">E</tspan>e <tspan x="380.698px " y="410.75px ">F</tspan>f <tspan x="442.304px " y="410.75px ">G</tspan>g <tspan x="522.232px " y="410.75px ">H</tspan>h <tspan x="602.911px " y="410.75px ">I</tspan>i <tspan x="645.987px " y="410.75px ">J</tspan>j <tspan x="702.935px " y="410.75px ">K</tspan>k <tspan x="778.464px " y="410.75px ">L</tspan>l <tspan x="834.791px " y="410.75px ">M</tspan>m <tspan x="940.676px " y="410.75px ">N</tspan>n <tspan x="1021.35px " y="410.75px ">O</tspan>o <tspan x="1101.49px " y="410.75px ">P</tspan>p <tspan x="1179.09px " y="410.75px ">Q</tspan>q <tspan x="1259.2px " y="410.75px ">R</tspan>r <tspan x="1325.93px " y="410.75px ">S</tspan>s <tspan x="1397.78px " y="410.75px ">T</tspan>t <tspan x="1462.05px " y="410.75px ">U</tspan>u <tspan x="1540.17px 1574.54px 1601.32px 1614.9px " y="410.75px 410.75px 410.75px 410.75px ">Vv W</tspan>w <tspan x="1713.77px " y="410.75px ">X</tspan>x <tspan x="1787.98px " y="410.75px ">Y</tspan>y <tspan x="1860.92px " y="410.75px ">Z</tspan>z</text><text x="0px" y="463.75px" style="font-family:'Roboto-Bold', 'Roboto';font-weight:700;font-size:53px;fill-opacity:0.25;">Aa <tspan x="77.651px " y="463.75px ">B</tspan>b <tspan x="154.888px " y="463.75px ">C</tspan>c <tspan x="230.779px " y="463.75px ">D</tspan>d <tspan x="308.663px " y="463.75px ">E</tspan>e <tspan x="380.698px " y="463.75px ">F</tspan>f <tspan x="442.304px " y="463.75px ">G</tspan>g <tspan x="522.232px " y="463.75px ">H</tspan>h <tspan x="602.911px " y="463.75px ">I</tspan>i <tspan x="645.987px " y="463.75px ">J</tspan>j <tspan x="702.935px " y="463.75px ">K</tspan>k <tspan x="778.464px " y="463.75px ">L</tspan>l <tspan x="834.791px " y="463.75px ">M</tspan>m <tspan x="940.676px " y="463.75px ">N</tspan>n <tspan x="1021.35px " y="463.75px ">O</tspan>o <tspan x="1101.49px " y="463.75px ">P</tspan>p <tspan x="1179.09px " y="463.75px ">Q</tspan>q <tspan x="1259.2px " y="463.75px ">R</tspan>r <tspan x="1325.93px " y="463.75px ">S</tspan>s <tspan x="1397.78px " y="463.75px ">T</tspan>t <tspan x="1462.05px " y="463.75px ">U</tspan>u <tspan x="1540.17px 1574.54px 1601.32px 1614.9px " y="463.75px 463.75px 463.75px 463.75px ">Vv W</tspan>w <tspan x="1713.77px " y="463.75px ">X</tspan>x <tspan x="1787.98px " y="463.75px ">Y</tspan>y <tspan x="1860.92px " y="463.75px ">Z</tspan>z</text><text x="0px" y="516.75px" style="font-family:'Roboto-Bold', 'Roboto';font-weight:700;font-size:53px;fill-opacity:0.25;">Aa <tspan x="77.651px " y="516.75px ">B</tspan>b <tspan x="154.888px " y="516.75px ">C</tspan>c <tspan x="230.779px " y="516.75px ">D</tspan>d <tspan x="308.663px " y="516.75px ">E</tspan>e <tspan x="380.698px " y="516.75px ">F</tspan>f <tspan x="442.304px " y="516.75px ">G</tspan>g <tspan x="522.232px " y="516.75px ">H</tspan>h <tspan x="602.911px " y="516.75px ">I</tspan>i <tspan x="645.987px " y="516.75px ">J</tspan>j <tspan x="702.935px " y="516.75px ">K</tspan>k <tspan x="778.464px " y="516.75px ">L</tspan>l <tspan x="834.791px " y="516.75px ">M</tspan>m <tspan x="940.676px " y="516.75px ">N</tspan>n <tspan x="1021.35px " y="516.75px ">O</tspan>o <tspan x="1101.49px " y="516.75px ">P</tspan>p <tspan x="1179.09px " y="516.75px ">Q</tspan>q <tspan x="1259.2px " y="516.75px ">R</tspan>r <tspan x="1325.93px " y="516.75px ">S</tspan>s <tspan x="1397.78px " y="516.75px ">T</tspan>t <tspan x="1462.05px " y="516.75px ">U</tspan>u <tspan x="1540.17px 1574.54px 1601.32px 1614.9px " y="516.75px 516.75px 516.75px 516.75px ">Vv W</tspan>w <tspan x="1713.77px " y="516.75px ">X</tspan>x <tspan x="1787.98px " y="516.75px ">Y</tspan>y <tspan x="1860.92px " y="516.75px ">Z</tspan>z</text><text x="0px" y="569.75px" style="font-family:'Roboto-Bold', 'Roboto';font-weight:700;font-size:53px;fill-opacity:0.25;">Aa <tspan x="77.651px " y="569.75px ">B</tspan>b <tspan x="154.888px " y="569.75px ">C</tspan>c <tspan x="230.779px " y="569.75px ">D</tspan>d <tspan x="308.663px " y="569.75px ">E</tspan>e <tspan x="380.698px " y="569.75px ">F</tspan>f <tspan x="442.304px " y="569.75px ">G</tspan>g <tspan x="522.232px " y="569.75px ">H</tspan>h <tspan x="602.911px " y="569.75px ">I</tspan>i <tspan x="645.987px " y="569.75px ">J</tspan>j <tspan x="702.935px " y="569.75px ">K</tspan>k <tspan x="778.464px " y="569.75px ">L</tspan>l <tspan x="834.791px " y="569.75px ">M</tspan>m <tspan x="940.676px " y="569.75px ">N</tspan>n <tspan x="1021.35px " y="569.75px ">O</tspan>o <tspan x="1101.49px " y="569.75px ">P</tspan>p <tspan x="1179.09px " y="569.75px ">Q</tspan>q <tspan x="1259.2px " y="569.75px ">R</tspan>r <tspan x="1325.93px " y="569.75px ">S</tspan>s <tspan x="1397.78px " y="569.75px ">T</tspan>t <tspan x="1462.05px " y="569.75px ">U</tspan>u <tspan x="1540.17px 1574.54px 1601.32px 1614.9px " y="569.75px 569.75px 569.75px 569.75px ">Vv W</tspan>w <tspan x="1713.77px " y="569.75px ">X</tspan>x <tspan x="1787.98px " y="569.75px ">Y</tspan>y <tspan x="1860.92px " y="569.75px ">Z</tspan>z</text><text x="0px" y="622.75px" style="font-family:'Roboto-Bold', 'Roboto';font-weight:700;font-size:53px;fill-opacity:0.25;">Aa <tspan x="77.651px " y="622.75px ">B</tspan>b <tspan x="154.888px " y="622.75px ">C</tspan>c <tspan x="230.779px " y="622.75px ">D</tspan>d <tspan x="308.663px " y="622.75px ">E</tspan>e <tspan x="380.698px " y="622.75px ">F</tspan>f <tspan x="442.304px " y="622.75px ">G</tspan>g <tspan x="522.232px " y="622.75px ">H</tspan>h <tspan x="602.911px " y="622.75px ">I</tspan>i <tspan x="645.987px " y="622.75px ">J</tspan>j <tspan x="702.935px " y="622.75px ">K</tspan>k <tspan x="778.464px " y="622.75px ">L</tspan>l <tspan x="834.791px " y="622.75px ">M</tspan>m <tspan x="940.676px " y="622.75px ">N</tspan>n <tspan x="1021.35px " y="622.75px ">O</tspan>o <tspan x="1101.49px " y="622.75px ">P</tspan>p <tspan x="1179.09px " y="622.75px ">Q</tspan>q <tspan x="1259.2px " y="622.75px ">R</tspan>r <tspan x="1325.93px " y="622.75px ">S</tspan>s <tspan x="1397.78px " y="622.75px ">T</tspan>t <tspan x="1462.05px " y="622.75px ">U</tspan>u <tspan x="1540.17px 1574.54px 1601.32px 1614.9px " y="622.75px 622.75px 622.75px 622.75px ">Vv W</tspan>w <tspan x="1713.77px " y="622.75px ">X</tspan>x <tspan x="1787.98px " y="622.75px ">Y</tspan>y <tspan x="1860.92px " y="622.75px ">Z</tspan>z</text><text x="0px" y="675.75px" style="font-family:'Roboto-Bold', 'Roboto';font-weight:700;font-size:53px;fill-opacity:0.25;">Aa <tspan x="77.651px " y="675.75px ">B</tspan>b <tspan x="154.888px " y="675.75px ">C</tspan>c <tspan x="230.779px " y="675.75px ">D</tspan>d <tspan x="308.663px " y="675.75px ">E</tspan>e <tspan x="380.698px " y="675.75px ">F</tspan>f <tspan x="442.304px " y="675.75px ">G</tspan>g <tspan x="522.232px " y="675.75px ">H</tspan>h <tspan x="602.911px " y="675.75px ">I</tspan>i <tspan x="645.987px " y="675.75px ">J</tspan>j <tspan x="702.935px " y="675.75px ">K</tspan>k <tspan x="778.464px " y="675.75px ">L</tspan>l <tspan x="834.791px " y="675.75px ">M</tspan>m <tspan x="940.676px " y="675.75px ">N</tspan>n <tspan x="1021.35px " y="675.75px ">O</tspan>o <tspan x="1101.49px " y="675.75px ">P</tspan>p <tspan x="1179.09px " y="675.75px ">Q</tspan>q <tspan x="1259.2px " y="675.75px ">R</tspan>r <tspan x="1325.93px " y="675.75px ">S</tspan>s <tspan x="1397.78px " y="675.75px ">T</tspan>t <tspan x="1462.05px " y="675.75px ">U</tspan>u <tspan x="1540.17px 1574.54px 1601.32px 1614.9px " y="675.75px 675.75px 675.75px 675.75px ">Vv W</tspan>w <tspan x="1713.77px " y="675.75px ">X</tspan>x <tspan x="1787.98px " y="675.75px ">Y</tspan>y <tspan x="1860.92px " y="675.75px ">Z</tspan>z</text><text x="0px" y="728.75px" style="font-family:'Roboto-Bold', 'Roboto';font-weight:700;font-size:53px;fill-opacity:0.25;">Aa <tspan x="77.651px " y="728.75px ">B</tspan>b <tspan x="154.888px " y="728.75px ">C</tspan>c <tspan x="230.779px " y="728.75px ">D</tspan>d <tspan x="308.663px " y="728.75px ">E</tspan>e <tspan x="380.698px " y="728.75px ">F</tspan>f <tspan x="442.304px " y="728.75px ">G</tspan>g <tspan x="522.232px " y="728.75px ">H</tspan>h <tspan x="602.911px " y="728.75px ">I</tspan>i <tspan x="645.987px " y="728.75px ">J</tspan>j <tspan x="702.935px " y="728.75px ">K</tspan>k <tspan x="778.464px " y="728.75px ">L</tspan>l <tspan x="834.791px " y="728.75px ">M</tspan>m <tspan x="940.676px " y="728.75px ">N</tspan>n <tspan x="1021.35px " y="728.75px ">O</tspan>o <tspan x="1101.49px " y="728.75px ">P</tspan>p <tspan x="1179.09px " y="728.75px ">Q</tspan>q <tspan x="1259.2px " y="728.75px ">R</tspan>r <tspan x="1325.93px " y="728.75px ">S</tspan>s <tspan x="1397.78px " y="728.75px ">T</tspan>t <tspan x="1462.05px " y="728.75px ">U</tspan>u <tspan x="1540.17px 1574.54px 1601.32px 1614.9px " y="728.75px 728.75px 728.75px 728.75px ">Vv W</tspan>w <tspan x="1713.77px " y="728.75px ">X</tspan>x <tspan x="1787.98px " y="728.75px ">Y</tspan>y <tspan x="1860.92px " y="728.75px ">Z</tspan>z</text><text x="0px" y="781.75px" style="font-family:'Roboto-Bold', 'Roboto';font-weight:700;font-size:53px;fill-opacity:0.25;">Aa <tspan x="77.651px " y="781.75px ">B</tspan>b <tspan x="154.888px " y="781.75px ">C</tspan>c <tspan x="230.779px " y="781.75px ">D</tspan>d <tspan x="308.663px " y="781.75px ">E</tspan>e <tspan x="380.698px " y="781.75px ">F</tspan>f <tspan x="442.304px " y="781.75px ">G</tspan>g <tspan x="522.232px " y="781.75px ">H</tspan>h <tspan x="602.911px " y="781.75px ">I</tspan>i <tspan x="645.987px " y="781.75px ">J</tspan>j <tspan x="702.935px " y="781.75px ">K</tspan>k <tspan x="778.464px " y="781.75px ">L</tspan>l <tspan x="834.791px " y="781.75px ">M</tspan>m <tspan x="940.676px " y="781.75px ">N</tspan>n <tspan x="1021.35px " y="781.75px ">O</tspan>o <tspan x="1101.49px " y="781.75px ">P</tspan>p <tspan x="1179.09px " y="781.75px ">Q</tspan>q <tspan x="1259.2px " y="781.75px ">R</tspan>r <tspan x="1325.93px " y="781.75px ">S</tspan>s <tspan x="1397.78px " y="781.75px ">T</tspan>t <tspan x="1462.05px " y="781.75px ">U</tspan>u <tspan x="1540.17px 1574.54px 1601.32px 1614.9px " y="781.75px 781.75px 781.75px 781.75px ">Vv W</tspan>w <tspan x="1713.77px " y="781.75px ">X</tspan>x <tspan x="1787.98px " y="781.75px ">Y</tspan>y <tspan x="1860.92px " y="781.75px ">Z</tspan>z</text><text x="0px" y="834.75px" style="font-family:'Roboto-Bold', 'Roboto';font-weight:700;font-size:53px;fill-opacity:0.25;">Aa <tspan x="77.651px " y="834.75px ">B</tspan>b <tspan x="154.888px " y="834.75px ">C</tspan>c <tspan x="230.779px " y="834.75px ">D</tspan>d <tspan x="308.663px " y="834.75px ">E</tspan>e <tspan x="380.698px " y="834.75px ">F</tspan>f <tspan x="442.304px " y="834.75px ">G</tspan>g <tspan x="522.232px " y="834.75px ">H</tspan>h <tspan x="602.911px " y="834.75px ">I</tspan>i <tspan x="645.987px " y="834.75px ">J</tspan>j <tspan x="702.935px " y="834.75px ">K</tspan>k <tspan x="778.464px " y="834.75px ">L</tspan>l <tspan x="834.791px " y="834.75px ">M</tspan>m <tspan x="940.676px " y="834.75px ">N</tspan>n <tspan x="1021.35px " y="834.75px ">O</tspan>o <tspan x="1101.49px " y="834.75px ">P</tspan>p <tspan x="1179.09px " y="834.75px ">Q</tspan>q <tspan x="1259.2px " y="834.75px ">R</tspan>r <tspan x="1325.93px " y="834.75px ">S</tspan>s <tspan x="1397.78px " y="834.75px ">T</tspan>t <tspan x="1462.05px " y="834.75px ">U</tspan>u <tspan x="1540.17px 1574.54px 1601.32px 1614.9px " y="834.75px 834.75px 834.75px 834.75px ">Vv W</tspan>w <tspan x="1713.77px " y="834.75px ">X</tspan>x <tspan x="1787.98px " y="834.75px ">Y</tspan>y <tspan x="1860.92px " y="834.75px ">Z</tspan>z</text><text x="0px" y="887.75px" style="font-family:'Roboto-Bold', 'Roboto';font-weight:700;font-size:53px;fill-opacity:0.25;">Aa <tspan x="77.651px " y="887.75px ">B</tspan>b <tspan x="154.888px " y="887.75px ">C</tspan>c <tspan x="230.779px " y="887.75px ">D</tspan>d <tspan x="308.663px " y="887.75px ">E</tspan>e <tspan x="380.698px " y="887.75px ">F</tspan>f <tspan x="442.304px " y="887.75px ">G</tspan>g <tspan x="522.232px " y="887.75px ">H</tspan>h <tspan x="602.911px " y="887.75px ">I</tspan>i <tspan x="645.987px " y="887.75px ">J</tspan>j <tspan x="702.935px " y="887.75px ">K</tspan>k <tspan x="778.464px " y="887.75px ">L</tspan>l <tspan x="834.791px " y="887.75px ">M</tspan>m <tspan x="940.676px " y="887.75px ">N</tspan>n <tspan x="1021.35px " y="887.75px ">O</tspan>o <tspan x="1101.49px " y="887.75px ">P</tspan>p <tspan x="1179.09px " y="887.75px ">Q</tspan>q <tspan x="1259.2px " y="887.75px ">R</tspan>r <tspan x="1325.93px " y="887.75px ">S</tspan>s <tspan x="1397.78px " y="887.75px ">T</tspan>t <tspan x="1462.05px " y="887.75px ">U</tspan>u <tspan x="1540.17px 1574.54px 1601.32px 1614.9px " y="887.75px 887.75px 887.75px 887.75px ">Vv W</tspan>w <tspan x="1713.77px " y="887.75px ">X</tspan>x <tspan x="1787.98px " y="887.75px ">Y</tspan>y <tspan x="1860.92px " y="887.75px ">Z</tspan>z</text><text x="0px" y="940.75px" style="font-family:'Roboto-Bold', 'Roboto';font-weight:700;font-size:53px;fill-opacity:0.25;">Aa <tspan x="77.651px " y="940.75px ">B</tspan>b <tspan x="154.888px " y="940.75px ">C</tspan>c <tspan x="230.779px " y="940.75px ">D</tspan>d <tspan x="308.663px " y="940.75px ">E</tspan>e <tspan x="380.698px " y="940.75px ">F</tspan>f <tspan x="442.304px " y="940.75px ">G</tspan>g <tspan x="522.232px " y="940.75px ">H</tspan>h <tspan x="602.911px " y="940.75px ">I</tspan>i <tspan x="645.987px " y="940.75px ">J</tspan>j <tspan x="702.935px " y="940.75px ">K</tspan>k <tspan x="778.464px " y="940.75px ">L</tspan>l <tspan x="834.791px " y="940.75px ">M</tspan>m <tspan x="940.676px " y="940.75px ">N</tspan>n <tspan x="1021.35px " y="940.75px ">O</tspan>o <tspan x="1101.49px " y="940.75px ">P</tspan>p <tspan x="1179.09px " y="940.75px ">Q</tspan>q <tspan x="1259.2px " y="940.75px ">R</tspan>r <tspan x="1325.93px " y="940.75px ">S</tspan>s <tspan x="1397.78px " y="940.75px ">T</tspan>t <tspan x="1462.05px " y="940.75px ">U</tspan>u <tspan x="1540.17px 1574.54px 1601.32px 1614.9px " y="940.75px 940.75px 940.75px 940.75px ">Vv W</tspan>w <tspan x="1713.77px " y="940.75px ">X</tspan>x <tspan x="1787.98px " y="940.75px ">Y</tspan>y <tspan x="1860.92px " y="940.75px ">Z</tspan>z</text><text x="0px" y="993.75px" style="font-family:'Roboto-Bold', 'Roboto';font-weight:700;font-size:53px;fill-opacity:0.25;">Aa <tspan x="77.651px " y="993.75px ">B</tspan>b <tspan x="154.888px " y="993.75px ">C</tspan>c <tspan x="230.779px " y="993.75px ">D</tspan>d <tspan x="308.663px " y="993.75px ">E</tspan>e <tspan x="380.698px " y="993.75px ">F</tspan>f <tspan x="442.304px " y="993.75px ">G</tspan>g <tspan x="522.232px " y="993.75px ">H</tspan>h <tspan x="602.911px " y="993.75px ">I</tspan>i <tspan x="645.987px " y="993.75px ">J</tspan>j <tspan x="702.935px " y="993.75px ">K</tspan>k <tspan x="778.464px " y="993.75px ">L</tspan>l <tspan x="834.791px " y="993.75px ">M</tspan>m <tspan x="940.676px " y="993.75px ">N</tspan>n <tspan x="1021.35px " y="993.75px ">O</tspan>o <tspan x="1101.49px " y="993.75px ">P</tspan>p <tspan x="1179.09px " y="993.75px ">Q</tspan>q <tspan x="1259.2px " y="993.75px ">R</tspan>r <tspan x="1325.93px " y="993.75px ">S</tspan>s <tspan x="1397.78px " y="993.75px ">T</tspan>t <tspan x="1462.05px " y="993.75px ">U</tspan>u <tspan x="1540.17px 1574.54px 1601.32px 1614.9px " y="993.75px 993.75px 993.75px 993.75px ">Vv W</tspan>w <tspan x="1713.77px " y="993.75px ">X</tspan>x <tspan x="1787.98px " y="993.75px ">Y</tspan>y <tspan x="1860.92px " y="993.75px ">Z</tspan>z</text><text x="0px" y="1046.75px" style="font-family:'Roboto-Bold', 'Roboto';font-weight:700;font-size:53px;fill-opacity:0.25;">Aa <tspan x="77.651px " y="1046.75px ">B</tspan>b <tspan x="154.888px " y="1046.75px ">C</tspan>c <tspan x="230.779px " y="1046.75px ">D</tspan>d <tspan x="308.663px " y="1046.75px ">E</tspan>e <tspan x="380.698px " y="1046.75px ">F</tspan>f <tspan x="442.304px " y="1046.75px ">G</tspan>g <tspan x="522.232px " y="1046.75px ">H</tspan>h <tspan x="602.911px " y="1046.75px ">I</tspan>i <tspan x="645.987px " y="1046.75px ">J</tspan>j <tspan x="702.935px " y="1046.75px ">K</tspan>k <tspan x="778.464px " y="1046.75px ">L</tspan>l <tspan x="834.791px " y="1046.75px ">M</tspan>m <tspan x="940.676px " y="1046.75px ">N</tspan>n <tspan x="1021.35px " y="1046.75px ">O</tspan>o <tspan x="1101.49px " y="1046.75px ">P</tspan>p <tspan x="1179.09px " y="1046.75px ">Q</tspan>q <tspan x="1259.2px " y="1046.75px ">R</tspan>r <tspan x="1325.93px " y="1046.75px ">S</tspan>s <tspan x="1397.78px " y="1046.75px ">T</tspan>t <tspan x="1462.05px " y="1046.75px ">U</tspan>u <tspan x="1540.17px 1574.54px 1601.32px 1614.9px " y="1046.75px 1046.75px 1046.75px 1046.75px ">Vv W</tspan>w <tspan x="1713.77px " y="1046.75px ">X</tspan>x <tspan x="1787.98px " y="1046.75px ">Y</tspan>y <tspan x="1860.92px " y="1046.75px ">Z</tspan>z</text><text x="0px" y="1099.75px" style="font-family:'Roboto-Bold', 'Roboto';font-weight:700;font-size:53px;fill-opacity:0.25;">Aa <tspan x="77.651px " y="1099.75px ">B</tspan>b <tspan x="154.888px " y="1099.75px ">C</tspan>c <tspan x="230.779px " y="1099.75px ">D</tspan>d <tspan x="308.663px " y="1099.75px ">E</tspan>e <tspan x="380.698px " y="1099.75px ">F</tspan>f <tspan x="442.304px " y="1099.75px ">G</tspan>g <tspan x="522.232px " y="1099.75px ">H</tspan>h <tspan x="602.911px " y="1099.75px ">I</tspan>i <tspan x="645.987px " y="1099.75px ">J</tspan>j <tspan x="702.935px " y="1099.75px ">K</tspan>k <tspan x="778.464px " y="1099.75px ">L</tspan>l <tspan x="834.791px " y="1099.75px ">M</tspan>m <tspan x="940.676px " y="1099.75px ">N</tspan>n <tspan x="1021.35px " y="1099.75px ">O</tspan>o <tspan x="1101.49px " y="1099.75px ">P</tspan>p <tspan x="1179.09px " y="1099.75px ">Q</tspan>q <tspan x="1259.2px " y="1099.75px ">R</tspan>r <tspan x="1325.93px " y="1099.75px ">S</tspan>s <tspan x="1397.78px " y="1099.75px ">T</tspan>t <tspan x="1462.05px " y="1099.75px ">U</tspan>u <tspan x="1540.17px 1574.54px 1601.32px 1614.9px " y="1099.75px 1099.75px 1099.75px 1099.75px ">Vv W</tspan>w <tspan x="1713.77px " y="1099.75px ">X</tspan>x <tspan x="1787.98px " y="1099.75px ">Y</tspan>y <tspan x="1860.92px " y="1099.75px ">Z</tspan>z</text><text x="0px" y="1152.75px" style="font-family:'Roboto-Bold', 'Roboto';font-weight:700;font-size:53px;fill-opacity:0.25;">Aa <tspan x="77.651px " y="1152.75px ">B</tspan>b <tspan x="154.888px " y="1152.75px ">C</tspan>c <tspan x="230.779px " y="1152.75px ">D</tspan>d <tspan x="308.663px " y="1152.75px ">E</tspan>e <tspan x="380.698px " y="1152.75px ">F</tspan>f <tspan x="442.304px " y="1152.75px ">G</tspan>g <tspan x="522.232px " y="1152.75px ">H</tspan>h <tspan x="602.911px " y="1152.75px ">I</tspan>i <tspan x="645.987px " y="1152.75px ">J</tspan>j <tspan x="702.935px " y="1152.75px ">K</tspan>k <tspan x="778.464px " y="1152.75px ">L</tspan>l <tspan x="834.791px " y="1152.75px ">M</tspan>m <tspan x="940.676px " y="1152.75px ">N</tspan>n <tspan x="1021.35px " y="1152.75px ">O</tspan>o <tspan x="1101.49px " y="1152.75px ">P</tspan>p <tspan x="1179.09px " y="1152.75px ">Q</tspan>q <tspan x="1259.2px " y="1152.75px ">R</tspan>r <tspan x="1325.93px " y="1152.75px ">S</tspan>s <tspan x="1397.78px " y="1152.75px ">T</tspan>t <tspan x="1462.05px " y="1152.75px ">U</tspan>u <tspan x="1540.17px 1574.54px 1601.32px 1614.9px " y="1152.75px 1152.75px 1152.75px 1152.75px ">Vv W</tspan>w <tspan x="1713.77px " y="1152.75px ">X</tspan>x <tspan x="1787.98px " y="1152.75px ">Y</tspan>y <tspan x="1860.92px " y="1152.75px ">Z</tspan>z</text><text x="0px" y="1205.75px" style="font-family:'Roboto-Bold', 'Roboto';font-weight:700;font-size:53px;fill-opacity:0.25;">Aa <tspan x="77.651px " y="1205.75px ">B</tspan>b <tspan x="154.888px " y="1205.75px ">C</tspan>c <tspan x="230.779px " y="1205.75px ">D</tspan>d <tspan x="308.663px " y="1205.75px ">E</tspan>e <tspan x="380.698px " y="1205.75px ">F</tspan>f <tspan x="442.304px " y="1205.75px ">G</tspan>g <tspan x="522.232px " y="1205.75px ">H</tspan>h <tspan x="602.911px " y="1205.75px ">I</tspan>i <tspan x="645.987px " y="1205.75px ">J</tspan>j <tspan x="702.935px " y="1205.75px ">K</tspan>k <tspan x="778.464px " y="1205.75px ">L</tspan>l <tspan x="834.791px " y="1205.75px ">M</tspan>m <tspan x="940.676px " y="1205.75px ">N</tspan>n <tspan x="1021.35px " y="1205.75px ">O</tspan>o <tspan x="1101.49px " y="1205.75px ">P</tspan>p <tspan x="1179.09px " y="1205.75px ">Q</tspan>q <tspan x="1259.2px " y="1205.75px ">R</tspan>r <tspan x="1325.93px " y="1205.75px ">S</tspan>s <tspan x="1397.78px " y="1205.75px ">T</tspan>t <tspan x="1462.05px " y="1205.75px ">U</tspan>u <tspan x="1540.17px 1574.54px 1601.32px 1614.9px " y="1205.75px 1205.75px 1205.75px 1205.75px ">Vv W</tspan>w <tspan x="1713.77px " y="1205.75px ">X</tspan>x <tspan x="1787.98px " y="1205.75px ">Y</tspan>y <tspan x="1860.92px " y="1205.75px ">Z</tspan>z</text></g></svg>